<?xml version="1.0" encoding="UTF-8" standalone="no"?>
<!DOCTYPE svg PUBLIC "-//W3C//DTD SVG 1.1//EN"
 "http://www.w3.org/Graphics/SVG/1.1/DTD/svg11.dtd">
<!-- Generated by graphviz version 2.43.0 (0)
 -->
<!-- Title: G Pages: 1 -->
<svg width="170pt" height="290pt"
 viewBox="0.00 0.00 170.00 290.00" xmlns="http://www.w3.org/2000/svg" xmlns:xlink="http://www.w3.org/1999/xlink">
<g id="graph0" class="graph" transform="scale(1 1) rotate(0) translate(4 286)">
<title>G</title>
<polygon fill="white" stroke="transparent" points="-4,4 -4,-286 166,-286 166,4 -4,4"/>
<!-- node_2 -->
<g id="node1" class="node">
<title>node_2</title>
<polygon fill="none" stroke="black" points="36,-212.5 36,-281.5 90,-281.5 90,-212.5 36,-212.5"/>
<text text-anchor="middle" x="63" y="-266.3" font-family="Times,serif" font-size="14.00">k: 2</text>
<polyline fill="none" stroke="black" points="36,-258.5 90,-258.5 "/>
<text text-anchor="middle" x="63" y="-243.3" font-family="Times,serif" font-size="14.00">h: 3</text>
<polyline fill="none" stroke="black" points="36,-235.5 90,-235.5 "/>
<text text-anchor="middle" x="63" y="-220.3" font-family="Times,serif" font-size="14.00">sz: 5</text>
</g>
<!-- node_1 -->
<g id="node2" class="node">
<title>node_1</title>
<polygon fill="none" stroke="black" points="0,-106.5 0,-175.5 54,-175.5 54,-106.5 0,-106.5"/>
<text text-anchor="middle" x="27" y="-160.3" font-family="Times,serif" font-size="14.00">k: 1</text>
<polyline fill="none" stroke="black" points="0,-152.5 54,-152.5 "/>
<text text-anchor="middle" x="27" y="-137.3" font-family="Times,serif" font-size="14.00">h: 1</text>
<polyline fill="none" stroke="black" points="0,-129.5 54,-129.5 "/>
<text text-anchor="middle" x="27" y="-114.3" font-family="Times,serif" font-size="14.00">sz: 1</text>
</g>
<!-- node_2&#45;&gt;node_1 -->
<g id="edge1" class="edge">
<title>node_2&#45;&gt;node_1</title>
<path fill="none" stroke="black" d="M51.31,-212.23C48.33,-203.61 45.08,-194.22 41.95,-185.19"/>
<polygon fill="black" stroke="black" points="45.21,-183.9 38.63,-175.6 38.59,-186.19 45.21,-183.9"/>
</g>
<!-- node_4 -->
<g id="node3" class="node">
<title>node_4</title>
<polygon fill="none" stroke="black" points="72,-106.5 72,-175.5 126,-175.5 126,-106.5 72,-106.5"/>
<text text-anchor="middle" x="99" y="-160.3" font-family="Times,serif" font-size="14.00">k: 4</text>
<polyline fill="none" stroke="black" points="72,-152.5 126,-152.5 "/>
<text text-anchor="middle" x="99" y="-137.3" font-family="Times,serif" font-size="14.00">h: 2</text>
<polyline fill="none" stroke="black" points="72,-129.5 126,-129.5 "/>
<text text-anchor="middle" x="99" y="-114.3" font-family="Times,serif" font-size="14.00">sz: 3</text>
</g>
<!-- node_2&#45;&gt;node_4 -->
<g id="edge2" class="edge">
<title>node_2&#45;&gt;node_4</title>
<path fill="none" stroke="black" d="M74.69,-212.23C77.67,-203.61 80.92,-194.22 84.05,-185.19"/>
<polygon fill="black" stroke="black" points="87.41,-186.19 87.37,-175.6 80.79,-183.9 87.41,-186.19"/>
</g>
<!-- node_3 -->
<g id="node4" class="node">
<title>node_3</title>
<polygon fill="none" stroke="black" points="36,-0.5 36,-69.5 90,-69.5 90,-0.5 36,-0.5"/>
<text text-anchor="middle" x="63" y="-54.3" font-family="Times,serif" font-size="14.00">k: 3</text>
<polyline fill="none" stroke="black" points="36,-46.5 90,-46.5 "/>
<text text-anchor="middle" x="63" y="-31.3" font-family="Times,serif" font-size="14.00">h: 1</text>
<polyline fill="none" stroke="black" points="36,-23.5 90,-23.5 "/>
<text text-anchor="middle" x="63" y="-8.3" font-family="Times,serif" font-size="14.00">sz: 1</text>
</g>
<!-- node_4&#45;&gt;node_3 -->
<g id="edge3" class="edge">
<title>node_4&#45;&gt;node_3</title>
<path fill="none" stroke="black" d="M87.31,-106.23C84.33,-97.61 81.08,-88.22 77.95,-79.19"/>
<polygon fill="black" stroke="black" points="81.21,-77.9 74.63,-69.6 74.59,-80.19 81.21,-77.9"/>
</g>
<!-- node_5 -->
<g id="node5" class="node">
<title>node_5</title>
<polygon fill="none" stroke="black" points="108,-0.5 108,-69.5 162,-69.5 162,-0.5 108,-0.5"/>
<text text-anchor="middle" x="135" y="-54.3" font-family="Times,serif" font-size="14.00">k: 5</text>
<polyline fill="none" stroke="black" points="108,-46.5 162,-46.5 "/>
<text text-anchor="middle" x="135" y="-31.3" font-family="Times,serif" font-size="14.00">h: 1</text>
<polyline fill="none" stroke="black" points="108,-23.5 162,-23.5 "/>
<text text-anchor="middle" x="135" y="-8.3" font-family="Times,serif" font-size="14.00">sz: 1</text>
</g>
<!-- node_4&#45;&gt;node_5 -->
<g id="edge4" class="edge">
<title>node_4&#45;&gt;node_5</title>
<path fill="none" stroke="black" d="M110.69,-106.23C113.67,-97.61 116.92,-88.22 120.05,-79.19"/>
<polygon fill="black" stroke="black" points="123.41,-80.19 123.37,-69.6 116.79,-77.9 123.41,-80.19"/>
</g>
</g>
</svg>
