<?xml version="1.0" encoding="UTF-8" standalone="no"?>
<!DOCTYPE svg PUBLIC "-//W3C//DTD SVG 1.1//EN"
 "http://www.w3.org/Graphics/SVG/1.1/DTD/svg11.dtd">
<!-- Generated by graphviz version 2.43.0 (0)
 -->
<!-- Title: G Pages: 1 -->
<svg width="278pt" height="396pt"
 viewBox="0.00 0.00 278.00 396.00" xmlns="http://www.w3.org/2000/svg" xmlns:xlink="http://www.w3.org/1999/xlink">
<g id="graph0" class="graph" transform="scale(1 1) rotate(0) translate(4 392)">
<title>G</title>
<polygon fill="white" stroke="transparent" points="-4,4 -4,-392 274,-392 274,4 -4,4"/>
<!-- node_4 -->
<g id="node1" class="node">
<title>node_4</title>
<polygon fill="none" stroke="black" points="108,-318.5 108,-387.5 162,-387.5 162,-318.5 108,-318.5"/>
<text text-anchor="middle" x="135" y="-372.3" font-family="Times,serif" font-size="14.00">k: 4</text>
<polyline fill="none" stroke="black" points="108,-364.5 162,-364.5 "/>
<text text-anchor="middle" x="135" y="-349.3" font-family="Times,serif" font-size="14.00">h: 4</text>
<polyline fill="none" stroke="black" points="108,-341.5 162,-341.5 "/>
<text text-anchor="middle" x="135" y="-326.3" font-family="Times,serif" font-size="14.00">sz: 8</text>
</g>
<!-- node_2 -->
<g id="node2" class="node">
<title>node_2</title>
<polygon fill="none" stroke="black" points="72,-212.5 72,-281.5 126,-281.5 126,-212.5 72,-212.5"/>
<text text-anchor="middle" x="99" y="-266.3" font-family="Times,serif" font-size="14.00">k: 2</text>
<polyline fill="none" stroke="black" points="72,-258.5 126,-258.5 "/>
<text text-anchor="middle" x="99" y="-243.3" font-family="Times,serif" font-size="14.00">h: 2</text>
<polyline fill="none" stroke="black" points="72,-235.5 126,-235.5 "/>
<text text-anchor="middle" x="99" y="-220.3" font-family="Times,serif" font-size="14.00">sz: 3</text>
</g>
<!-- node_4&#45;&gt;node_2 -->
<g id="edge1" class="edge">
<title>node_4&#45;&gt;node_2</title>
<path fill="none" stroke="black" d="M123.31,-318.23C120.33,-309.61 117.08,-300.22 113.95,-291.19"/>
<polygon fill="black" stroke="black" points="117.21,-289.9 110.63,-281.6 110.59,-292.19 117.21,-289.9"/>
</g>
<!-- node_6 -->
<g id="node3" class="node">
<title>node_6</title>
<polygon fill="none" stroke="black" points="144,-212.5 144,-281.5 198,-281.5 198,-212.5 144,-212.5"/>
<text text-anchor="middle" x="171" y="-266.3" font-family="Times,serif" font-size="14.00">k: 6</text>
<polyline fill="none" stroke="black" points="144,-258.5 198,-258.5 "/>
<text text-anchor="middle" x="171" y="-243.3" font-family="Times,serif" font-size="14.00">h: 3</text>
<polyline fill="none" stroke="black" points="144,-235.5 198,-235.5 "/>
<text text-anchor="middle" x="171" y="-220.3" font-family="Times,serif" font-size="14.00">sz: 4</text>
</g>
<!-- node_4&#45;&gt;node_6 -->
<g id="edge2" class="edge">
<title>node_4&#45;&gt;node_6</title>
<path fill="none" stroke="black" d="M146.69,-318.23C149.67,-309.61 152.92,-300.22 156.05,-291.19"/>
<polygon fill="black" stroke="black" points="159.41,-292.19 159.37,-281.6 152.79,-289.9 159.41,-292.19"/>
</g>
<!-- node_1 -->
<g id="node4" class="node">
<title>node_1</title>
<polygon fill="none" stroke="black" points="0,-106.5 0,-175.5 54,-175.5 54,-106.5 0,-106.5"/>
<text text-anchor="middle" x="27" y="-160.3" font-family="Times,serif" font-size="14.00">k: 1</text>
<polyline fill="none" stroke="black" points="0,-152.5 54,-152.5 "/>
<text text-anchor="middle" x="27" y="-137.3" font-family="Times,serif" font-size="14.00">h: 1</text>
<polyline fill="none" stroke="black" points="0,-129.5 54,-129.5 "/>
<text text-anchor="middle" x="27" y="-114.3" font-family="Times,serif" font-size="14.00">sz: 1</text>
</g>
<!-- node_2&#45;&gt;node_1 -->
<g id="edge3" class="edge">
<title>node_2&#45;&gt;node_1</title>
<path fill="none" stroke="black" d="M75.62,-212.23C69.4,-203.24 62.6,-193.42 56.11,-184.04"/>
<polygon fill="black" stroke="black" points="58.83,-181.83 50.26,-175.6 53.07,-185.81 58.83,-181.83"/>
</g>
<!-- node_3 -->
<g id="node5" class="node">
<title>node_3</title>
<polygon fill="none" stroke="black" points="72,-106.5 72,-175.5 126,-175.5 126,-106.5 72,-106.5"/>
<text text-anchor="middle" x="99" y="-160.3" font-family="Times,serif" font-size="14.00">k: 3</text>
<polyline fill="none" stroke="black" points="72,-152.5 126,-152.5 "/>
<text text-anchor="middle" x="99" y="-137.3" font-family="Times,serif" font-size="14.00">h: 1</text>
<polyline fill="none" stroke="black" points="72,-129.5 126,-129.5 "/>
<text text-anchor="middle" x="99" y="-114.3" font-family="Times,serif" font-size="14.00">sz: 1</text>
</g>
<!-- node_2&#45;&gt;node_3 -->
<g id="edge4" class="edge">
<title>node_2&#45;&gt;node_3</title>
<path fill="none" stroke="black" d="M99,-212.23C99,-203.79 99,-194.62 99,-185.77"/>
<polygon fill="black" stroke="black" points="102.5,-185.6 99,-175.6 95.5,-185.6 102.5,-185.6"/>
</g>
<!-- node_5 -->
<g id="node6" class="node">
<title>node_5</title>
<polygon fill="none" stroke="black" points="144,-106.5 144,-175.5 198,-175.5 198,-106.5 144,-106.5"/>
<text text-anchor="middle" x="171" y="-160.3" font-family="Times,serif" font-size="14.00">k: 5</text>
<polyline fill="none" stroke="black" points="144,-152.5 198,-152.5 "/>
<text text-anchor="middle" x="171" y="-137.3" font-family="Times,serif" font-size="14.00">h: 1</text>
<polyline fill="none" stroke="black" points="144,-129.5 198,-129.5 "/>
<text text-anchor="middle" x="171" y="-114.3" font-family="Times,serif" font-size="14.00">sz: 1</text>
</g>
<!-- node_6&#45;&gt;node_5 -->
<g id="edge5" class="edge">
<title>node_6&#45;&gt;node_5</title>
<path fill="none" stroke="black" d="M171,-212.23C171,-203.79 171,-194.62 171,-185.77"/>
<polygon fill="black" stroke="black" points="174.5,-185.6 171,-175.6 167.5,-185.6 174.5,-185.6"/>
</g>
<!-- node_7 -->
<g id="node7" class="node">
<title>node_7</title>
<polygon fill="none" stroke="black" points="216,-106.5 216,-175.5 270,-175.5 270,-106.5 216,-106.5"/>
<text text-anchor="middle" x="243" y="-160.3" font-family="Times,serif" font-size="14.00">k: 7</text>
<polyline fill="none" stroke="black" points="216,-152.5 270,-152.5 "/>
<text text-anchor="middle" x="243" y="-137.3" font-family="Times,serif" font-size="14.00">h: 2</text>
<polyline fill="none" stroke="black" points="216,-129.5 270,-129.5 "/>
<text text-anchor="middle" x="243" y="-114.3" font-family="Times,serif" font-size="14.00">sz: 2</text>
</g>
<!-- node_6&#45;&gt;node_7 -->
<g id="edge6" class="edge">
<title>node_6&#45;&gt;node_7</title>
<path fill="none" stroke="black" d="M194.38,-212.23C200.6,-203.24 207.4,-193.42 213.89,-184.04"/>
<polygon fill="black" stroke="black" points="216.93,-185.81 219.74,-175.6 211.17,-181.83 216.93,-185.81"/>
</g>
<!-- node_8 -->
<g id="node8" class="node">
<title>node_8</title>
<polygon fill="none" stroke="black" points="216,-0.5 216,-69.5 270,-69.5 270,-0.5 216,-0.5"/>
<text text-anchor="middle" x="243" y="-54.3" font-family="Times,serif" font-size="14.00">k: 9</text>
<polyline fill="none" stroke="black" points="216,-46.5 270,-46.5 "/>
<text text-anchor="middle" x="243" y="-31.3" font-family="Times,serif" font-size="14.00">h: 1</text>
<polyline fill="none" stroke="black" points="216,-23.5 270,-23.5 "/>
<text text-anchor="middle" x="243" y="-8.3" font-family="Times,serif" font-size="14.00">sz: 1</text>
</g>
<!-- node_7&#45;&gt;node_8 -->
<g id="edge7" class="edge">
<title>node_7&#45;&gt;node_8</title>
<path fill="none" stroke="black" d="M243,-106.23C243,-97.79 243,-88.62 243,-79.77"/>
<polygon fill="black" stroke="black" points="246.5,-79.6 243,-69.6 239.5,-79.6 246.5,-79.6"/>
</g>
</g>
</svg>
