<?xml version="1.0" encoding="UTF-8" standalone="no"?>
<!DOCTYPE svg PUBLIC "-//W3C//DTD SVG 1.1//EN"
 "http://www.w3.org/Graphics/SVG/1.1/DTD/svg11.dtd">
<!-- Generated by graphviz version 2.43.0 (0)
 -->
<!-- Title: G Pages: 1 -->
<svg width="206pt" height="290pt"
 viewBox="0.00 0.00 206.00 290.00" xmlns="http://www.w3.org/2000/svg" xmlns:xlink="http://www.w3.org/1999/xlink">
<g id="graph0" class="graph" transform="scale(1 1) rotate(0) translate(4 286)">
<title>G</title>
<polygon fill="white" stroke="transparent" points="-4,4 -4,-286 202,-286 202,4 -4,4"/>
<!-- node_2 -->
<g id="node1" class="node">
<title>node_2</title>
<polygon fill="none" stroke="black" points="108,-212.5 108,-281.5 162,-281.5 162,-212.5 108,-212.5"/>
<text text-anchor="middle" x="135" y="-266.3" font-family="Times,serif" font-size="14.00">k: 5</text>
<polyline fill="none" stroke="black" points="108,-258.5 162,-258.5 "/>
<text text-anchor="middle" x="135" y="-243.3" font-family="Times,serif" font-size="14.00">h: 3</text>
<polyline fill="none" stroke="black" points="108,-235.5 162,-235.5 "/>
<text text-anchor="middle" x="135" y="-220.3" font-family="Times,serif" font-size="14.00">sz: 6</text>
</g>
<!-- node_6 -->
<g id="node2" class="node">
<title>node_6</title>
<polygon fill="none" stroke="black" points="72,-106.5 72,-175.5 126,-175.5 126,-106.5 72,-106.5"/>
<text text-anchor="middle" x="99" y="-160.3" font-family="Times,serif" font-size="14.00">k: 2</text>
<polyline fill="none" stroke="black" points="72,-152.5 126,-152.5 "/>
<text text-anchor="middle" x="99" y="-137.3" font-family="Times,serif" font-size="14.00">h: 2</text>
<polyline fill="none" stroke="black" points="72,-129.5 126,-129.5 "/>
<text text-anchor="middle" x="99" y="-114.3" font-family="Times,serif" font-size="14.00">sz: 3</text>
</g>
<!-- node_2&#45;&gt;node_6 -->
<g id="edge1" class="edge">
<title>node_2&#45;&gt;node_6</title>
<path fill="none" stroke="black" d="M123.31,-212.23C120.33,-203.61 117.08,-194.22 113.95,-185.19"/>
<polygon fill="black" stroke="black" points="117.21,-183.9 110.63,-175.6 110.59,-186.19 117.21,-183.9"/>
</g>
<!-- node_1 -->
<g id="node3" class="node">
<title>node_1</title>
<polygon fill="none" stroke="black" points="144,-106.5 144,-175.5 198,-175.5 198,-106.5 144,-106.5"/>
<text text-anchor="middle" x="171" y="-160.3" font-family="Times,serif" font-size="14.00">k: 10</text>
<polyline fill="none" stroke="black" points="144,-152.5 198,-152.5 "/>
<text text-anchor="middle" x="171" y="-137.3" font-family="Times,serif" font-size="14.00">h: 2</text>
<polyline fill="none" stroke="black" points="144,-129.5 198,-129.5 "/>
<text text-anchor="middle" x="171" y="-114.3" font-family="Times,serif" font-size="14.00">sz: 2</text>
</g>
<!-- node_2&#45;&gt;node_1 -->
<g id="edge2" class="edge">
<title>node_2&#45;&gt;node_1</title>
<path fill="none" stroke="black" d="M146.69,-212.23C149.67,-203.61 152.92,-194.22 156.05,-185.19"/>
<polygon fill="black" stroke="black" points="159.41,-186.19 159.37,-175.6 152.79,-183.9 159.41,-186.19"/>
</g>
<!-- node_3 -->
<g id="node4" class="node">
<title>node_3</title>
<polygon fill="none" stroke="black" points="0,-0.5 0,-69.5 54,-69.5 54,-0.5 0,-0.5"/>
<text text-anchor="middle" x="27" y="-54.3" font-family="Times,serif" font-size="14.00">k: 1</text>
<polyline fill="none" stroke="black" points="0,-46.5 54,-46.5 "/>
<text text-anchor="middle" x="27" y="-31.3" font-family="Times,serif" font-size="14.00">h: 1</text>
<polyline fill="none" stroke="black" points="0,-23.5 54,-23.5 "/>
<text text-anchor="middle" x="27" y="-8.3" font-family="Times,serif" font-size="14.00">sz: 1</text>
</g>
<!-- node_6&#45;&gt;node_3 -->
<g id="edge3" class="edge">
<title>node_6&#45;&gt;node_3</title>
<path fill="none" stroke="black" d="M75.62,-106.23C69.4,-97.24 62.6,-87.42 56.11,-78.04"/>
<polygon fill="black" stroke="black" points="58.83,-75.83 50.26,-69.6 53.07,-79.81 58.83,-75.83"/>
</g>
<!-- node_4 -->
<g id="node5" class="node">
<title>node_4</title>
<polygon fill="none" stroke="black" points="72,-0.5 72,-69.5 126,-69.5 126,-0.5 72,-0.5"/>
<text text-anchor="middle" x="99" y="-54.3" font-family="Times,serif" font-size="14.00">k: 3</text>
<polyline fill="none" stroke="black" points="72,-46.5 126,-46.5 "/>
<text text-anchor="middle" x="99" y="-31.3" font-family="Times,serif" font-size="14.00">h: 1</text>
<polyline fill="none" stroke="black" points="72,-23.5 126,-23.5 "/>
<text text-anchor="middle" x="99" y="-8.3" font-family="Times,serif" font-size="14.00">sz: 1</text>
</g>
<!-- node_6&#45;&gt;node_4 -->
<g id="edge4" class="edge">
<title>node_6&#45;&gt;node_4</title>
<path fill="none" stroke="black" d="M99,-106.23C99,-97.79 99,-88.62 99,-79.77"/>
<polygon fill="black" stroke="black" points="102.5,-79.6 99,-69.6 95.5,-79.6 102.5,-79.6"/>
</g>
<!-- node_5 -->
<g id="node6" class="node">
<title>node_5</title>
<polygon fill="none" stroke="black" points="144,-0.5 144,-69.5 198,-69.5 198,-0.5 144,-0.5"/>
<text text-anchor="middle" x="171" y="-54.3" font-family="Times,serif" font-size="14.00">k: 7</text>
<polyline fill="none" stroke="black" points="144,-46.5 198,-46.5 "/>
<text text-anchor="middle" x="171" y="-31.3" font-family="Times,serif" font-size="14.00">h: 1</text>
<polyline fill="none" stroke="black" points="144,-23.5 198,-23.5 "/>
<text text-anchor="middle" x="171" y="-8.3" font-family="Times,serif" font-size="14.00">sz: 1</text>
</g>
<!-- node_1&#45;&gt;node_5 -->
<g id="edge5" class="edge">
<title>node_1&#45;&gt;node_5</title>
<path fill="none" stroke="black" d="M171,-106.23C171,-97.79 171,-88.62 171,-79.77"/>
<polygon fill="black" stroke="black" points="174.5,-79.6 171,-69.6 167.5,-79.6 174.5,-79.6"/>
</g>
</g>
</svg>
