<?xml version="1.0" encoding="UTF-8" standalone="no"?>
<!DOCTYPE svg PUBLIC "-//W3C//DTD SVG 1.1//EN"
 "http://www.w3.org/Graphics/SVG/1.1/DTD/svg11.dtd">
<!-- Generated by graphviz version 2.43.0 (0)
 -->
<!-- Title: G Pages: 1 -->
<svg width="134pt" height="184pt"
 viewBox="0.00 0.00 134.00 184.00" xmlns="http://www.w3.org/2000/svg" xmlns:xlink="http://www.w3.org/1999/xlink">
<g id="graph0" class="graph" transform="scale(1 1) rotate(0) translate(4 180)">
<title>G</title>
<polygon fill="white" stroke="transparent" points="-4,4 -4,-180 130,-180 130,4 -4,4"/>
<!-- node_5 -->
<g id="node1" class="node">
<title>node_5</title>
<polygon fill="none" stroke="black" points="36,-106.5 36,-175.5 90,-175.5 90,-106.5 36,-106.5"/>
<text text-anchor="middle" x="63" y="-160.3" font-family="Times,serif" font-size="14.00">k: 5</text>
<polyline fill="none" stroke="black" points="36,-152.5 90,-152.5 "/>
<text text-anchor="middle" x="63" y="-137.3" font-family="Times,serif" font-size="14.00">h: 2</text>
<polyline fill="none" stroke="black" points="36,-129.5 90,-129.5 "/>
<text text-anchor="middle" x="63" y="-114.3" font-family="Times,serif" font-size="14.00">sz: 3</text>
</g>
<!-- node_1 -->
<g id="node2" class="node">
<title>node_1</title>
<polygon fill="none" stroke="black" points="0,-0.5 0,-69.5 54,-69.5 54,-0.5 0,-0.5"/>
<text text-anchor="middle" x="27" y="-54.3" font-family="Times,serif" font-size="14.00">k: 1</text>
<polyline fill="none" stroke="black" points="0,-46.5 54,-46.5 "/>
<text text-anchor="middle" x="27" y="-31.3" font-family="Times,serif" font-size="14.00">h: 1</text>
<polyline fill="none" stroke="black" points="0,-23.5 54,-23.5 "/>
<text text-anchor="middle" x="27" y="-8.3" font-family="Times,serif" font-size="14.00">sz: 1</text>
</g>
<!-- node_5&#45;&gt;node_1 -->
<g id="edge1" class="edge">
<title>node_5&#45;&gt;node_1</title>
<path fill="none" stroke="black" d="M51.31,-106.23C48.33,-97.61 45.08,-88.22 41.95,-79.19"/>
<polygon fill="black" stroke="black" points="45.21,-77.9 38.63,-69.6 38.59,-80.19 45.21,-77.9"/>
</g>
<!-- node_10 -->
<g id="node3" class="node">
<title>node_10</title>
<polygon fill="none" stroke="black" points="72,-0.5 72,-69.5 126,-69.5 126,-0.5 72,-0.5"/>
<text text-anchor="middle" x="99" y="-54.3" font-family="Times,serif" font-size="14.00">k: 10</text>
<polyline fill="none" stroke="black" points="72,-46.5 126,-46.5 "/>
<text text-anchor="middle" x="99" y="-31.3" font-family="Times,serif" font-size="14.00">h: 1</text>
<polyline fill="none" stroke="black" points="72,-23.5 126,-23.5 "/>
<text text-anchor="middle" x="99" y="-8.3" font-family="Times,serif" font-size="14.00">sz: 1</text>
</g>
<!-- node_5&#45;&gt;node_10 -->
<g id="edge2" class="edge">
<title>node_5&#45;&gt;node_10</title>
<path fill="none" stroke="black" d="M74.69,-106.23C77.67,-97.61 80.92,-88.22 84.05,-79.19"/>
<polygon fill="black" stroke="black" points="87.41,-80.19 87.37,-69.6 80.79,-77.9 87.41,-80.19"/>
</g>
</g>
</svg>
