<?xml version="1.0" encoding="UTF-8" standalone="no"?>
<!DOCTYPE svg PUBLIC "-//W3C//DTD SVG 1.1//EN"
 "http://www.w3.org/Graphics/SVG/1.1/DTD/svg11.dtd">
<!-- Generated by graphviz version 2.43.0 (0)
 -->
<!-- Title: G Pages: 1 -->
<svg width="134pt" height="290pt"
 viewBox="0.00 0.00 134.00 290.00" xmlns="http://www.w3.org/2000/svg" xmlns:xlink="http://www.w3.org/1999/xlink">
<g id="graph0" class="graph" transform="scale(1 1) rotate(0) translate(4 286)">
<title>G</title>
<polygon fill="white" stroke="transparent" points="-4,4 -4,-286 130,-286 130,4 -4,4"/>
<!-- node_5 -->
<g id="node1" class="node">
<title>node_5</title>
<polygon fill="none" stroke="black" points="36,-212.5 36,-281.5 90,-281.5 90,-212.5 36,-212.5"/>
<text text-anchor="middle" x="63" y="-266.3" font-family="Times,serif" font-size="14.00">k: 5</text>
<polyline fill="none" stroke="black" points="36,-258.5 90,-258.5 "/>
<text text-anchor="middle" x="63" y="-243.3" font-family="Times,serif" font-size="14.00">h: 3</text>
<polyline fill="none" stroke="black" points="36,-235.5 90,-235.5 "/>
<text text-anchor="middle" x="63" y="-220.3" font-family="Times,serif" font-size="14.00">sz: 5</text>
</g>
<!-- node_1 -->
<g id="node2" class="node">
<title>node_1</title>
<polygon fill="none" stroke="black" points="0,-106.5 0,-175.5 54,-175.5 54,-106.5 0,-106.5"/>
<text text-anchor="middle" x="27" y="-160.3" font-family="Times,serif" font-size="14.00">k: 1</text>
<polyline fill="none" stroke="black" points="0,-152.5 54,-152.5 "/>
<text text-anchor="middle" x="27" y="-137.3" font-family="Times,serif" font-size="14.00">h: 2</text>
<polyline fill="none" stroke="black" points="0,-129.5 54,-129.5 "/>
<text text-anchor="middle" x="27" y="-114.3" font-family="Times,serif" font-size="14.00">sz: 2</text>
</g>
<!-- node_5&#45;&gt;node_1 -->
<g id="edge1" class="edge">
<title>node_5&#45;&gt;node_1</title>
<path fill="none" stroke="black" d="M51.31,-212.23C48.33,-203.61 45.08,-194.22 41.95,-185.19"/>
<polygon fill="black" stroke="black" points="45.21,-183.9 38.63,-175.6 38.59,-186.19 45.21,-183.9"/>
</g>
<!-- node_10 -->
<g id="node3" class="node">
<title>node_10</title>
<polygon fill="none" stroke="black" points="72,-106.5 72,-175.5 126,-175.5 126,-106.5 72,-106.5"/>
<text text-anchor="middle" x="99" y="-160.3" font-family="Times,serif" font-size="14.00">k: 10</text>
<polyline fill="none" stroke="black" points="72,-152.5 126,-152.5 "/>
<text text-anchor="middle" x="99" y="-137.3" font-family="Times,serif" font-size="14.00">h: 2</text>
<polyline fill="none" stroke="black" points="72,-129.5 126,-129.5 "/>
<text text-anchor="middle" x="99" y="-114.3" font-family="Times,serif" font-size="14.00">sz: 2</text>
</g>
<!-- node_5&#45;&gt;node_10 -->
<g id="edge2" class="edge">
<title>node_5&#45;&gt;node_10</title>
<path fill="none" stroke="black" d="M74.69,-212.23C77.67,-203.61 80.92,-194.22 84.05,-185.19"/>
<polygon fill="black" stroke="black" points="87.41,-186.19 87.37,-175.6 80.79,-183.9 87.41,-186.19"/>
</g>
<!-- node_3 -->
<g id="node5" class="node">
<title>node_3</title>
<polygon fill="none" stroke="black" points="0,-0.5 0,-69.5 54,-69.5 54,-0.5 0,-0.5"/>
<text text-anchor="middle" x="27" y="-54.3" font-family="Times,serif" font-size="14.00">k: 3</text>
<polyline fill="none" stroke="black" points="0,-46.5 54,-46.5 "/>
<text text-anchor="middle" x="27" y="-31.3" font-family="Times,serif" font-size="14.00">h: 1</text>
<polyline fill="none" stroke="black" points="0,-23.5 54,-23.5 "/>
<text text-anchor="middle" x="27" y="-8.3" font-family="Times,serif" font-size="14.00">sz: 1</text>
</g>
<!-- node_1&#45;&gt;node_3 -->
<g id="edge4" class="edge">
<title>node_1&#45;&gt;node_3</title>
<path fill="none" stroke="black" d="M27,-106.23C27,-97.79 27,-88.62 27,-79.77"/>
<polygon fill="black" stroke="black" points="30.5,-79.6 27,-69.6 23.5,-79.6 30.5,-79.6"/>
</g>
<!-- node_7 -->
<g id="node4" class="node">
<title>node_7</title>
<polygon fill="none" stroke="black" points="72,-0.5 72,-69.5 126,-69.5 126,-0.5 72,-0.5"/>
<text text-anchor="middle" x="99" y="-54.3" font-family="Times,serif" font-size="14.00">k: 7</text>
<polyline fill="none" stroke="black" points="72,-46.5 126,-46.5 "/>
<text text-anchor="middle" x="99" y="-31.3" font-family="Times,serif" font-size="14.00">h: 1</text>
<polyline fill="none" stroke="black" points="72,-23.5 126,-23.5 "/>
<text text-anchor="middle" x="99" y="-8.3" font-family="Times,serif" font-size="14.00">sz: 1</text>
</g>
<!-- node_10&#45;&gt;node_7 -->
<g id="edge3" class="edge">
<title>node_10&#45;&gt;node_7</title>
<path fill="none" stroke="black" d="M99,-106.23C99,-97.79 99,-88.62 99,-79.77"/>
<polygon fill="black" stroke="black" points="102.5,-79.6 99,-69.6 95.5,-79.6 102.5,-79.6"/>
</g>
</g>
</svg>
