<?xml version="1.0" encoding="UTF-8" standalone="no"?>
<!DOCTYPE svg PUBLIC "-//W3C//DTD SVG 1.1//EN"
 "http://www.w3.org/Graphics/SVG/1.1/DTD/svg11.dtd">
<!-- Generated by graphviz version 2.43.0 (0)
 -->
<!-- Title: G Pages: 1 -->
<svg width="62pt" height="184pt"
 viewBox="0.00 0.00 62.00 184.00" xmlns="http://www.w3.org/2000/svg" xmlns:xlink="http://www.w3.org/1999/xlink">
<g id="graph0" class="graph" transform="scale(1 1) rotate(0) translate(4 180)">
<title>G</title>
<polygon fill="white" stroke="transparent" points="-4,4 -4,-180 58,-180 58,4 -4,4"/>
<!-- node_10 -->
<g id="node1" class="node">
<title>node_10</title>
<polygon fill="none" stroke="black" points="0,-106.5 0,-175.5 54,-175.5 54,-106.5 0,-106.5"/>
<text text-anchor="middle" x="27" y="-160.3" font-family="Times,serif" font-size="14.00">k: 10</text>
<polyline fill="none" stroke="black" points="0,-152.5 54,-152.5 "/>
<text text-anchor="middle" x="27" y="-137.3" font-family="Times,serif" font-size="14.00">h: 2</text>
<polyline fill="none" stroke="black" points="0,-129.5 54,-129.5 "/>
<text text-anchor="middle" x="27" y="-114.3" font-family="Times,serif" font-size="14.00">sz: 2</text>
</g>
<!-- node_5 -->
<g id="node2" class="node">
<title>node_5</title>
<polygon fill="none" stroke="black" points="0,-0.5 0,-69.5 54,-69.5 54,-0.5 0,-0.5"/>
<text text-anchor="middle" x="27" y="-54.3" font-family="Times,serif" font-size="14.00">k: 5</text>
<polyline fill="none" stroke="black" points="0,-46.5 54,-46.5 "/>
<text text-anchor="middle" x="27" y="-31.3" font-family="Times,serif" font-size="14.00">h: 1</text>
<polyline fill="none" stroke="black" points="0,-23.5 54,-23.5 "/>
<text text-anchor="middle" x="27" y="-8.3" font-family="Times,serif" font-size="14.00">sz: 1</text>
</g>
<!-- node_10&#45;&gt;node_5 -->
<g id="edge1" class="edge">
<title>node_10&#45;&gt;node_5</title>
<path fill="none" stroke="black" d="M27,-106.23C27,-97.79 27,-88.62 27,-79.77"/>
<polygon fill="black" stroke="black" points="30.5,-79.6 27,-69.6 23.5,-79.6 30.5,-79.6"/>
</g>
</g>
</svg>
